<svg id="Capa_1" data-name="Capa 1" xmlns="http://www.w3.org/2000/svg" viewBox="0 0 517.76 555.28"><defs><style>.cls-1{fill:#314668;}.cls-2{fill:#e4e9f0;}.cls-3{fill:#729bcc;}.cls-4{fill:#1a80e5;}.cls-5{fill:#3add84;}.cls-6{fill:#f7f7f7;}</style></defs><title>head_main</title><path class="cls-1" d="M441.26,498.78V365.41c0-22.27,10.94-40.13,20.13-51.23A192,192,0,0,0,505.26,192c0-105.89-86.11-192-192-192s-192,86.11-192,192v28.22L75,312.83A16,16,0,0,0,89.26,336h32v77.06a32,32,0,0,0,37.18,31.52l58.82-9.73v80"/><path class="cls-1" d="M235.88,511.78l192-32"/><path class="cls-2" d="M0,534.69v12.72c0,4.34,4.57,7.87,10.2,7.87H461.57c5.63,0,10.19-3.53,10.19-7.87V476.64c0-4.86-5.65-8.55-11.87-7.75l-451.37,58C3.6,527.57,0,530.85,0,534.69Z"/><circle class="cls-3" cx="498.01" cy="180.03" r="19.75"/><circle class="cls-4" cx="292.82" cy="377.99" r="31.72"/><circle class="cls-5" cx="427.88" cy="244.5" r="11.5"/><path class="cls-5" d="M55.07,111.61a27.57,27.57,0,0,1,0-55.14"/><path class="cls-1" d="M55.07,41.94a27.57,27.57,0,0,1,0,55.14"/><circle class="cls-6" cx="188.13" cy="160.28" r="19.75"/></svg>